<svg xmlns="http://www.w3.org/2000/svg" width="860" height="390" viewBox="0 0 860 390">
  <style>.bg{fill:#f8fafc}.title{font:700 22px Arial,sans-serif;fill:#0f172a}.tick{font:11px Arial,sans-serif;fill:#475569}.legend{font:14px Arial,sans-serif;fill:#334155}.axis{stroke:#334155;stroke-width:2}.grid{stroke:#e2e8f0;stroke-width:1}</style>
  <rect class="bg" width="860" height="390"/>
  <text x="40" y="42" class="title">Published Baselines With Submission Aggregate Reference</text>
  <line x1="55" y1="290" x2="790" y2="290" class="axis"/>
  <line x1="55" y1="65" x2="55" y2="290" class="axis"/>
  <line x1="55" y1="160" x2="790" y2="160" class="grid"/>
  <polyline points="70,213.8 112,179.6 154,189.3 196,202.9 238,144.9 280,172.9 322,178.6 364,209.7 406,167.8 448,190.9 490,126.4 532,179.2 574,158.3 616,156.8 658,160.7 700,77.4 742,129.3" fill="none" stroke="#ef4444" stroke-width="3"/>
  <polyline points="70,232.2 112,183.6 154,213.5 196,214.6 238,196.3 280,205.3 322,207.3 364,225.2 406,203.1 448,221.8 490,190.1 532,212.7 574,200.6 616,202.2 658,204.4 700,194.8 742,187.4" fill="none" stroke="#64748b" stroke-width="3"/>
  <line x1="55" y1="204.8" x2="790" y2="204.8" stroke="#2563eb" stroke-width="3"/>
  <text x="70" y="318" class="tick" transform="rotate(45 70 318)">ibm01</text><text x="112" y="318" class="tick" transform="rotate(45 112 318)">ibm02</text><text x="154" y="318" class="tick" transform="rotate(45 154 318)">ibm03</text><text x="196" y="318" class="tick" transform="rotate(45 196 318)">ibm04</text><text x="238" y="318" class="tick" transform="rotate(45 238 318)">ibm06</text><text x="280" y="318" class="tick" transform="rotate(45 280 318)">ibm07</text><text x="322" y="318" class="tick" transform="rotate(45 322 318)">ibm08</text><text x="364" y="318" class="tick" transform="rotate(45 364 318)">ibm09</text><text x="406" y="318" class="tick" transform="rotate(45 406 318)">ibm10</text><text x="448" y="318" class="tick" transform="rotate(45 448 318)">ibm11</text><text x="490" y="318" class="tick" transform="rotate(45 490 318)">ibm12</text><text x="532" y="318" class="tick" transform="rotate(45 532 318)">ibm13</text><text x="574" y="318" class="tick" transform="rotate(45 574 318)">ibm14</text><text x="616" y="318" class="tick" transform="rotate(45 616 318)">ibm15</text><text x="658" y="318" class="tick" transform="rotate(45 658 318)">ibm16</text><text x="700" y="318" class="tick" transform="rotate(45 700 318)">ibm17</text><text x="742" y="318" class="tick" transform="rotate(45 742 318)">ibm18</text>
  <text x="610" y="74" class="legend">SA baseline</text>
  <text x="610" y="96" class="legend">RePlAce baseline</text>
  <text x="610" y="118" class="legend">Submission aggregate</text>
</svg>
